<svg width="800" height="600" xmlns="http://www.w3.org/2000/svg" xmlns:undefined="https://boxy-svg.com">
 <g id="Layer_1">
  <title>Layer 1</title>
  <path id="svg_2" d="m235.038,580.3031l105.5,-200.872l105.5,200.872l-210.99999,0z" stroke="#cccccc" fill="#cccccc"/>
  <path id="svg_10" d="m341.038,580.3031l105.5,-200.872l105.5,200.872l-210.99999,0z" stroke="#cccccc" fill="#cccccc"/>
  <g>
   <polygon fill=" rgb(204, 204, 204)" stroke=" rgb(225, 246, 213)" transform="matrix(-1, 0, 0, -1, 729.875, 370.386)" points="158.49998474121094,304.6230163574219 90.42599487304688,236.5489959716797 89.06498718261719,107.20999145507812 153.73500061035156,22.118000030517578 200.7050018310547,-40.51000213623047 329.36399841308594,-41.191001892089844 326.64100646972656,26.882999420166016 "/>
   <polygon fill=" rgb(204, 204, 204)" stroke=" rgb(225, 246, 213)" points="229.5830078125,65.125 161.5090069770813,133.19900512695312 160.1480073928833,262.5379943847656 224.81800842285156,347.6300048828125 271.7880096435547,410.25799560546875 400.44700622558594,410.9389953613281 397.72401428222656,342.864990234375 "/>
   <path fill=" rgb(204, 204, 204)"  transform="matrix(0.999997, -0.002494, -0.002494, -0.999997, 1296.81, -1485.59)" d="m-900.26687,-1846.2962l171.366,296.812l-342.732,0l171.366,-296.812z"/>
   <polygon fill=" rgb(204, 204, 204)" stroke=" rgb(225, 246, 213)" points="159.19000720977783,487.2229919433594 181.19400787353516,528.7479858398438 608.8880157470703,534.875 635.7050018310547,490.6269836425781 "/>
   <path fill=" rgb(204, 204, 204)"  transform="matrix(0.999975, 0.007052, -0.007052, 0.999975, -793.715, -1281.27)" d="m1301.24327,1519.99652l140.311,243.025l-280.623,0l140.312,-243.025z"/>
   <path fill=" rgb(204, 204, 204)"  transform="matrix(0.999975, 0.007052, -0.007052, 0.999975, -988.154, -1282.8)" d="m1301.24327,1519.99652l140.311,243.025l-280.623,0l140.312,-243.025z"/>
   <path fill=" rgb(249, 249, 249)"  transform="matrix(-0.999999, -0.00132, 0.006665, -0.999992, 808.589, 2122.46)" d="m420.86677,1637.1556l70.691,279.922l-141.382,0l70.691,-279.922z"/>
   <path fill=" rgb(249, 249, 249)"  transform="matrix(0.999975, 0.007052, -0.007052, 0.999975, -324.142, -711.075)" d="m730.99627,789.16652l70.44,122.007l-140.881,0l70.441,-122.007z"/>
   <path  transform="matrix(0.999993, 0.003716, -0.003716, 0.999993, -148.75, -430.634)" d="m550.76766,551.84997l48.379,82.622l-96.759,0l48.38,-82.622z"/>
   <path  transform="matrix(-0.999999, -0.00132, 0.006665, -0.999992, 629.933, 1500.78)" d="m238.70677,1103.4316l48.371,191.541l-96.743,0l48.372,-191.541z"/>
   <path fill=" rgb(249, 249, 249)"  transform="matrix(0.999975, 0.007052, -0.007052, 0.999975, -499.667, -451.458)" d="m758.85227,824.86852l73.854,127.918l-147.708,0l73.854,-127.918z"/>
   <path fill=" rgb(249, 249, 249)"  transform="matrix(0.999975, 0.007052, -0.007052, 0.999975, -208.483, -449.181)" d="m758.85227,824.86852l73.854,127.918l-147.708,0l73.854,-127.918z"/>
   <path  transform="matrix(0.999975, 0.007052, -0.007052, 0.999975, -244.633, -79.1364)" d="m500.79627,494.14352l42.235,73.153l-84.47,0l42.235,-73.153z"/>
   <path  transform="matrix(0.999975, 0.007052, -0.007052, 0.999975, 47.0413, -77.6904)" d="m500.79627,494.14352l42.235,73.153l-84.47,0l42.235,-73.153z"/>
   <polygon stroke=" rgb(0, 0, 0)" points="357.5610046386719,125.3489990234375 295.614013671875,124.66799926757812 237.07101440429688,205.67601013183594 339.1809997558594,417.3849792480469 309.9100036621094,241.07400512695312 308.5480041503906,187.29600524902344 "/>
   <polygon stroke=" rgb(0, 0, 0)" transform="matrix(-1, 0, 0, -1, 691.404, 431.015)" points="250.22398376464844,307.7080078125 188.27699279785156,308.3890075683594 129.73399353027344,227.38099670410156 231.84397888183594,15.672000885009766 202.57298278808594,191.98300170898438 201.2109832763672,245.76100158691406 "/>
  </g>
  <path id="svg_5" d="m282.038,561.43111l62.5,-119l62.5,119l-125,0z" stroke="#ffffff" fill="#ffffff"/>
  <path id="svg_6" d="m305.038,548.68712l39,-74.256l39,74.256l-78,0z" stroke="#000" fill="#000000"/>
  <path id="svg_7" d="m380.038,561.43111l62.5,-119l62.5,119l-125,0z" stroke="#ffffff" fill="#ffffff"/>
  <path id="svg_8" d="m403.038,548.68712l39,-74.256l39,74.256l-78,0z" stroke="#000" fill="#000000"/>
  <path transform="rotate(150.222, 233.663, 286.331)" id="svg_14" d="m194.26931,419.6639l39.39363,-266.66564l39.39363,266.66564l-78.78726,0z" stroke=" rgb(0, 0, 0)"/>
  <path transform="rotate(-40.1229, 223.683, 123.108)" id="svg_16" d="m110.18299,159.108l0,-72l227,72l-227,0z" stroke=" rgb(0, 0, 0)"/>
  <path transform="rotate(-146.579, 557.988, 300.734)" id="svg_17" d="m518.40464,433.24996l39.58329,-265.03153l39.58329,265.03153l-79.16658,0z" stroke=" rgb(0, 0, 0)"/>
  <path transform="rotate(-143.626, 580.05, 117.075)" id="svg_20" d="m456.47974,78.5356l0,77.07894l247.14074,-77.07894l-247.14074,0z" stroke=" rgb(0, 0, 0)"/>
 </g>

</svg>