<?xml version="1.0" encoding="utf-8"?>
<svg viewBox="0 0 500 500" xmlns="http://www.w3.org/2000/svg" xmlns:bx="https://boxy-svg.com">
  <polygon style="stroke: rgb(225, 246, 213); fill: rgb(204, 204, 204);" points="314.223 358.1 246.149 290.026 244.788 160.687 309.458 75.595 356.428 12.967 485.087 12.286 482.364 80.36" transform="matrix(-1, 0, 0, -1, 729.875, 370.385996)"/>
  <polygon style="stroke: rgb(225, 246, 213); fill: rgb(204, 204, 204);" points="73.86 11.648 5.786 79.722 4.425 209.061 69.095 294.153 116.065 356.781 244.724 357.462 242.001 289.388"/>
  <path d="M -1055.856 -1792.431 L -884.49 -1495.619 L -1227.222 -1495.619 L -1055.856 -1792.431 Z" style="fill: rgb(204, 204, 204);" transform="matrix(0.999997, -0.002494, -0.002494, -0.999997, 1296.812421, -1485.59358)" bx:shape="triangle -1227.222 -1792.431 342.732 296.812 0.5 0 1@9df17428"/>
  <polygon style="stroke: rgb(225, 246, 213); fill: rgb(204, 204, 204);" points="3.467 433.746 25.471 475.271 453.165 481.398 479.982 437.15"/>
  <path d="M 1145.147 1467.619 L 1285.458 1710.644 L 1004.835 1710.644 L 1145.147 1467.619 Z" style="fill: rgb(204, 204, 204);" transform="matrix(0.999975, 0.007052, -0.007052, 0.999975, -793.715271, -1281.272827)" bx:shape="triangle 1004.835 1467.619 280.623 243.025 0.5 0 1@326a630b"/>
  <path d="M 1145.147 1467.619 L 1285.458 1710.644 L 1004.835 1710.644 L 1145.147 1467.619 Z" style="fill: rgb(204, 204, 204);" transform="matrix(0.999975, 0.007052, -0.007052, 0.999975, -988.153992, -1282.795044)" bx:shape="triangle 1004.835 1467.619 280.623 243.025 0.5 0 1@326a630b"/>
  <path d="M 576.945 1690.427 L 647.636 1970.349 L 506.254 1970.349 L 576.945 1690.427 Z" style="fill: rgb(249, 249, 249);" transform="matrix(-0.999999, -0.00132, 0.006665, -0.999992, 808.589417, 2122.462158)" bx:shape="triangle 506.254 1690.427 141.382 279.922 0.5 0 1@3c7af4fe"/>
  <path d="M 574.9 736.789 L 645.34 858.796 L 504.459 858.796 L 574.9 736.789 Z" style="fill: rgb(249, 249, 249);" transform="matrix(0.999975, 0.007052, -0.007052, 0.999975, -324.142212, -711.074524)" bx:shape="triangle 504.459 736.789 140.881 122.007 0.5 0 1@5926beaf"/>
  <path d="M 394.847 498.952 L 443.226 581.574 L 346.467 581.574 L 394.847 498.952 Z" style="" transform="matrix(0.999993, 0.003716, -0.003716, 0.999993, -148.750244, -430.634399)" bx:shape="triangle 346.467 498.952 96.759 82.622 0.5 0 1@603bcaab"/>
  <path d="M 394.785 1156.703 L 443.156 1348.244 L 346.413 1348.244 L 394.785 1156.703 Z" style="" transform="matrix(-0.999999, -0.00132, 0.006665, -0.999992, 629.932678, 1500.777588)" bx:shape="triangle 346.413 1156.703 96.743 191.541 0.5 0 1@3b4972bb"/>
  <path d="M 602.756 772.491 L 676.61 900.409 L 528.902 900.409 L 602.756 772.491 Z" style="fill: rgb(249, 249, 249);" transform="matrix(0.999975, 0.007052, -0.007052, 0.999975, -499.666626, -451.458405)" bx:shape="triangle 528.902 772.491 147.708 127.918 0.5 0 1@67129df0"/>
  <path d="M 602.756 772.491 L 676.61 900.409 L 528.902 900.409 L 602.756 772.491 Z" style="fill: rgb(249, 249, 249);" transform="matrix(0.999975, 0.007052, -0.007052, 0.999975, -208.482819, -449.181335)" bx:shape="triangle 528.902 772.491 147.708 127.918 0.5 0 1@67129df0"/>
  <path d="M 344.7 441.766 L 386.935 514.919 L 302.465 514.919 L 344.7 441.766 Z" style="" transform="matrix(0.999975, 0.007052, -0.007052, 0.999975, -244.632614, -79.136421)" bx:shape="triangle 302.465 441.766 84.47 73.153 0.5 0 1@32d59845"/>
  <path d="M 344.7 441.766 L 386.935 514.919 L 302.465 514.919 L 344.7 441.766 Z" style="" transform="matrix(0.999975, 0.007052, -0.007052, 0.999975, 47.041267, -77.690414)" bx:shape="triangle 302.465 441.766 84.47 73.153 0.5 0 1@32d59845"/>
  <polygon style="stroke: rgb(0, 0, 0);" points="201.838 70.872 139.891 70.191 81.348 151.199 183.458 362.908 154.187 186.597 152.825 132.819"/>
  <polygon style="stroke: rgb(0, 0, 0);" points="405.947 361.185 344 361.866 285.457 280.858 387.567 69.149 358.296 245.46 356.934 299.238" transform="matrix(-1, 0, 0, -1, 691.403992, 431.014984)"/>
</svg>